<svg width="869" height="289" viewBox="0 0 869 289" fill="none" xmlns="http://www.w3.org/2000/svg">
<path d="M590.66 144.172V284.87H620.662V144.172H590.66Z" fill="black"/>
<path d="M804.439 256.937V227.97H854.718V200.037H804.439V172.105H868.167V144.172H774.437V284.87H868.167V256.937H804.439Z" fill="black"/>
<path d="M260.047 144H210.164V285.07H260.047C297.562 285.07 336.874 275.265 336.874 214.435C336.874 153.805 297.562 144 260.047 144ZM240.291 256.856V172.214H260.047C284.991 172.214 304.746 174.215 304.746 214.435C304.746 254.855 284.991 256.856 260.047 256.856H240.291Z" fill="black"/>
<path d="M348.185 233.244C348.185 261.858 364.467 287.071 403.18 287.071C438.102 287.071 453.386 264.059 455.182 249.452H423.254C423.254 256.856 413.48 261.058 403.18 261.058C385.021 261.058 378.318 252.854 378.318 241.248H455.286V231.243C455.286 200.628 432.596 182.019 401.266 182.019C369.936 182.019 348.185 201.228 348.185 233.244ZM378.318 223.98C378.318 216.377 385.026 208.232 401.266 208.232C419.026 208.232 425.353 216.377 425.353 223.98H378.318Z" fill="black"/>
<path fill-rule="evenodd" clip-rule="evenodd" d="M724.896 284.87V242.247H672.342V284.87H642.34V144.172H693.446C738.139 144.172 752.829 163.001 752.829 188.45C752.829 211.21 741.21 224.837 713.277 225.458L713.51 225.552L712.913 225.543C716.373 228.725 721.959 233.815 727.977 239.299C738.919 249.271 751.288 260.543 754.898 264.009V284.87H724.896ZM722.827 193.623C722.827 177.07 715.379 172.105 693.446 172.105H672.342V214.314H693.446C715.379 214.314 722.827 209.762 722.827 193.623Z" fill="black"/>
<path fill-rule="evenodd" clip-rule="evenodd" d="M502.318 166.515C504.455 168.477 506.492 170.347 508.304 172.014H478.32V284.87H508.322V234.591H559.842V206.658H508.322V172.016H572.05V144.172H478.32V144.183C479.821 145.858 492.196 157.221 502.318 166.515Z" fill="black"/>
<path fill-rule="evenodd" clip-rule="evenodd" d="M168 96.1308L0 0V96.9877L80.312 143.379L0 189.771V289L84.3338 144.46L168 96.1308Z" fill="black"/>
</svg>
